<svg version="1.0" xmlns="http://www.w3.org/2000/svg" width="700px" height="700px" viewBox="0 0 700 700">
	<g transform="translate(0,700) scale(0.1,-0.1)">
		<path fill="#000000" d="M556 6729 c-31 -145 -56 -488 -56 -773 0 -687 104 -1220 319 -1639 l49 -94 -44 -79 c-66 -120 -196 -413 -249 -564 -86 -241 -152 -400 -275 -663 -67 -143 -118 -262 -114 -267 5 -4 79 -51 164 -105 466 -294 1179 -797 1585 -1117 l100 -79 28 -82 c64 -193 184 -389 329 -543 222 -233 486 -378 828 -451 119 -25 438 -25 560 1 577 121 998 496 1176 1048 25 76 1087 842 1709 1233 77 48 144 91 148 95 5 4 -43 117 -106 251 -134 287 -164 355 -206 469 -147 406 -185 496 -296 715 l-72 141 54 106 c206 407 313 955 313 1603 0 284 -27 660 -55 793 -5 22 -7 22 -173 22 -414 0 -720 -65 -1037 -219 -228 -112 -397 -233 -581 -416 -88 -88 -207 -226 -231 -270 -8 -13 -21 -11 -98 15 -534 181 -1095 187 -1606 16 -131 -44 -133 -44 -147 -25 -231 330 -609 619 -995 763 -251 94 -437 126 -769 133 l-247 6 -5 -24z m596 -549 c254 -49 504 -157 693 -299 65 -49 261 -235 276 -263 7 -14 0 -22 -38 -45 -27 -15 -93 -61 -148 -102 -253 -188 -465 -392 -664 -642 l-81 -101 -11 29 c-130 337 -206 978 -162 1386 4 38 10 57 19 57 7 0 59 -9 116 -20z m4828 9 c0 -5 5 -75 11 -155 17 -232 -10 -597 -67 -887 -23 -119 -77 -321 -103 -391 l-11 -28 -71 88 c-228 286 -512 552 -769 722 -47 30 -89 59 -94 63 -13 11 101 136 193 213 215 179 468 300 753 361 128 27 158 30 158 14z m-2191 -714 c214 -30 401 -90 626 -199 573 -279 1066 -818 1395 -1528 63 -135 115 -264 187 -467 54 -151 126 -328 165 -405 24 -47 38 -33 -137 -143 -434 -276 -1021 -697 -1365 -978 l-125 -103 -49 -143 c-27 -79 -60 -166 -74 -194 -132 -265 -371 -458 -659 -531 -463 -117 -950 101 -1160 521 -17 33 -52 125 -79 204 l-49 143 -133 109 c-343 280 -1074 800 -1440 1024 -35 21 -65 42 -67 45 -3 4 20 63 51 131 30 68 91 221 134 341 94 258 130 346 204 499 462 957 1213 1577 2036 1678 182 23 355 21 539 -4z">
		<path fill="#000000" d="M2005 3455 c14 -94 67 -262 114 -360 79 -165 152 -249 271 -311 l55 -29 278 -3 279 -3 -7 33 c-70 351 -198 582 -378 680 l-62 33 -279 3 -278 3 7 -46z">
		<path fill="#000000" d="M4450 3491 c-191 -58 -341 -271 -425 -600 -40 -159 -70 -142 248 -139 l273 3 66 33 c46 22 85 52 129 100 75 81 116 147 165 266 32 79 94 297 94 332 0 12 -44 14 -262 13 -145 0 -274 -4 -288 -8z">
		<path fill="#000000" d="M3095 1981 c-16 -10 -38 -27 -47 -37 -45 -52 -61 -153 -34 -217 17 -40 359 -423 405 -454 46 -31 116 -31 162 0 46 31 388 414 405 454 29 67 11 168 -39 221 -48 52 -50 52 -449 52 -346 0 -375 -1 -403 -19z">
	</g>
</svg>